<?xml version="1.0" encoding="utf-8"?>
<!-- Generator: Adobe Illustrator 16.0.0, SVG Export Plug-In . SVG Version: 6.00 Build 0)  -->
<!DOCTYPE svg PUBLIC "-//W3C//DTD SVG 1.1//EN" "http://www.w3.org/Graphics/SVG/1.1/DTD/svg11.dtd">
<svg version="1.1" id="Calque_1" xmlns="http://www.w3.org/2000/svg" xmlns:xlink="http://www.w3.org/1999/xlink" x="0px" y="0px"
	 width="490px" height="630px" viewBox="0 0 490 630" enable-background="new 0 0 490 630" xml:space="preserve">
<path fill="#838996" d="M230.017,0c4.667,0,9.333,0,14,0c5.851,1.455,11.517,3.621,16.998,6.5
	c15.563,11.079,31.227,21.913,46.992,32.5c1.89,2.672,4.556,3.672,7.998,3c8.289,1.329,16.621,2.329,25,3
	c2.672,1.618,5.672,2.285,9,2c1,0,2,0,3,0c4.77,1.389,9.77,2.056,15,2c0.334,0,0.668,0,1,0c1.939,1.663,4.273,2.33,7,2
	c20.244,8.758,30.244,24.425,30,47c-0.24,2.398,0.426,4.398,2,6c1.842,12.379,4.01,24.713,6.5,37c10.656,13.961,21.322,27.961,32,42
	c3.365,4.73,6.197,9.73,8.5,15c1.725,6.868,2.393,13.868,2,21c-1.326,8.149-4.492,15.482-9.5,22c-9.99,13.313-19.49,26.979-28.5,41
	c-1.289,0.558-2.123,1.558-2.5,3c-0.547,3.67-1.047,7.337-1.5,11c-0.146,5.733-0.813,11.4-2,17c-1.209,4.118-1.875,8.451-2,13
	c0.416,21.52-8.25,37.854-26,49c-3.416,0.027-6.416,1.027-9,3c-1.143,0.408-2.143,1.075-3,2c39.498,62.321,78.498,124.988,117,188
	c0.1,2.737-0.234,5.404-1,8c-3.137,3.022-6.805,3.689-11,2c-28.197-16.262-56.197-32.762-84-49.5c-1.844-1.128-3.844-1.628-6-1.5
	c-0.043,8.348-0.375,16.681-1,25c-1.873,9.096-2.873,18.429-3,28c-1.004,13.714-2.504,27.381-4.5,41c-1.516,1.74-3.016,3.406-4.5,5
	c-2.332,0-4.666,0-7,0c-29.893-69.454-60.058-138.787-90.493-208c-22.733,18.804-45.232,18.471-67.495-1
	c-1.447-1.385-2.447-1.052-3,1c-7.865,18.263-15.531,36.597-23,55c-1.745,1.533-2.745,3.533-3,6c-12.402,28.882-24.402,57.882-36,87
	c-1.745,1.533-2.745,3.533-3,6c-5.914,14.564-11.748,29.231-17.5,44c-0.995,0.566-1.828,1.233-2.5,2c-3.07,0.132-6.07-0.201-9-1
	c-1.301-1.382-2.134-3.048-2.5-5c-3.246-26.963-6.079-53.963-8.5-81c-0.333-4-0.667-8-1-12c-1.88-0.271-3.213,0.396-4,2
	c-9.831,5.414-19.498,11.081-29,17c-1.527-0.073-2.527,0.594-3,2c-18.377,10.497-36.71,21.33-55,32.5
	c-4.808,1.426-8.141-0.074-10-4.5c-0.099-2.737,0.235-5.404,1-8c35.216-58.41,70.716-116.743,106.5-175
	c0.781-1.443,0.614-2.777-0.5-4c-2.295-0.932-4.629-1.766-7-2.5c-14.015-10.154-21.348-23.986-22-41.5c0.09-2.652-0.576-4.984-2-7
	c-1.765-13.464-4.265-26.797-7.5-40c-12.031-16.024-24.031-32.024-36-48c-8.546-15.434-8.546-30.767,0-46
	c10.842-16.351,22.175-32.351,34-48c2.926-21.745,6.092-43.411,9.5-65c1.745-1.533,2.745-3.533,3-6c0.628-2.59,1.795-4.923,3.5-7
	c10.811-12.679,24.644-18.679,41.5-18c4.341-0.158,8.341-1.158,12-3c2.264-0.719,4.597-1.052,7-1c4.62-0.24,8.953-1.24,13-3
	c3.728-0.344,7.395-1.01,11-2c15.333-11.667,30.667-23.333,46-35C218.407,4.469,224.074,1.802,230.017,0z"/>
<path fill="#F8F8F8" d="M107.307,250.5c0.09-2.652-0.576-4.985-2-7c-4.773-28.182-2.106-55.515,8-82c1.406-0.473,2.073-1.473,2-3
	c6.528-15.701,15.694-29.701,27.5-42c31.731-31.155,69.898-44.989,114.499-41.5c51.819,6.699,89.818,32.866,113.99,78.5
	c24.864,59.528,16.031,113.195-26.5,161c-48.1,43.898-102.258,53.398-162.489,28.5C144.111,322.727,119.111,291.893,107.307,250.5z"
	/>
<path fill="#F8F8F8" d="M230.307,93.5c43.978-2.631,80.472,12.369,109.489,45c4.573,8.245,9.573,16.245,15,24
	c1.474,3.256,2.64,6.589,3.5,10c0.255,2.467,1.255,4.467,3,6c0.54,3.365,1.206,6.698,2,10c0.356,4.931,1.356,9.598,3,14
	c1.893,65.728-28.107,109.561-89.993,131.5c-49.532,11.094-91.366-1.739-125.496-38.5c-13.025-16.572-21.858-35.238-26.5-56
	c0.389-3.053-0.277-5.72-2-8c-1.31-10.679-1.31-21.346,0-32c1.268-2.405,1.935-5.072,2-8c10.594-46.762,38.594-77.929,84-93.5
	c4.626-1.151,9.293-1.985,14-2.5C225.235,95.435,227.902,94.768,230.307,93.5z"/>
</svg>
