<?xml version="1.0" encoding="utf-8"?>
<!DOCTYPE svg PUBLIC "-//W3C//DTD SVG 1.1//EN" "http://www.w3.org/Graphics/SVG/1.1/DTD/svg11.dtd">
<svg version="1.1" id="Calque_1" xmlns="http://www.w3.org/2000/svg" xmlns:xlink="http://www.w3.org/1999/xlink" x="0px" y="0px"
	 width="200px" height="191px" viewBox="0 0 200 191" enable-background="new 0 0 200 191" xml:space="preserve">
<g>
	<path opacity="0.833" fill="sienna" enable-background="new    " d="M199.5,102.5c0,1,0,2,0,3c-3.221,6.102-6.721,12.102-10.5,18
		c-4.145,2.989-8.645,5.322-13.5,7c-1.206,2.579-2.539,5.079-4,7.5c6.381-3.243,13.214-5.743,20.5-7.5c1.257,0.35,1.591,1.018,1,2
		c-2.575,2.818-4.908,5.818-7,9c-6.26,6.977-13.927,9.977-23,9c-1.813,2.78-3.979,5.28-6.5,7.5c7.072-0.912,14.239-1.745,21.5-2.5
		c0.833,0.333,1.667,0.667,2.5,1c-8.568,9.448-19.236,13.615-32,12.5c-1.432-0.465-2.598-1.299-3.5-2.5
		c-2.748,1.958-5.582,3.791-8.5,5.5c8.061,1.234,16.061,2.9,24,5c-12.646,6.979-25.313,7.145-38,0.5c-2.318,0.564-4.652,1.064-7,1.5
		c7.318,3.325,14.318,7.158,21,11.5c-5.333,0-10.667,0-16,0c-6.875-1.359-12.875-4.525-18-9.5c-2-0.667-4-0.667-6,0
		c-5.103,5.05-11.103,8.216-18,9.5c-5.333,0-10.667,0-16,0c6.649-4.327,13.649-8.161,21-11.5c-2.347-0.436-4.681-0.936-7-1.5
		c-4.84,3.589-10.34,5.255-16.5,5c-7.944-0.207-15.444-2.041-22.5-5.5c8.828-2.499,17.828-3.832,27-4
		c-3.494-1.579-6.827-3.413-10-5.5c-14.15,3.34-26.15-0.493-36-11.5c7.681,0.188,15.347,0.521,23,1c-1.667-1.667-3.333-3.333-5-5
		c-10.661-0.414-19.161-4.914-25.5-13.5c-0.953-1.955-2.287-3.622-4-5c-0.75-1.135-0.583-2.135,0.5-3
		c6.589,1.917,12.922,4.084,19,6.5c-1.333-2.333-2.667-4.667-4-7c-5.912-1.538-10.745-4.705-14.5-9.5
		c-3.132-5.268-5.965-10.602-8.5-16c0-0.667,0-1.333,0-2c5.694,2.934,11.194,6.268,16.5,10c0.625-2.213,0.459-4.38-0.5-6.5
		c-4.527-2.861-8.027-6.695-10.5-11.5c-7.736-23.259-4.403-24.925,10-5c0.667-3,0.667-6,0-9c-2.96-1.909-4.96-4.575-6-8
		c-0.831-7.356-0.665-14.689,0.5-22c4.151,4.33,7.318,9.33,9.5,15c0.642-2.262,1.475-4.429,2.5-6.5c-2.922-3.434-4.256-7.434-4-12
		c0.672-6.859,2.505-13.359,5.5-19.5c2.288,5.816,3.955,11.816,5,18c1.366-1.87,2.533-3.87,3.5-6c-2.477-4.579-2.644-9.246-0.5-14
		c2.557-5.224,5.891-9.89,10-14c0.333,5.333,0.667,10.667,1,16c3.761-1.215,4.928-3.548,3.5-7c2.478-8.481,7.811-14.481,16-18
		c0.333,0.5,0.667,1,1,1.5c-1.407,3.457-2.24,6.957-2.5,10.5c3.174-2.796,6.008-5.963,8.5-9.5c17.951-7.587,19.618-4.92,5,8
		c-4.266,1.087-8.266,2.753-12,5c5.851,0.546,11.518,1.879,17,4c1.333,0.667,1.333,1.333,0,2c-9.312,0.962-18.645,1.628-28,2
		c-0.333,0.333-0.667,0.667-1,1c4.702,0.172,9.369,0.672,14,1.5c-7.408,5.417-15.742,8.583-25,9.5c-1.801,1.387-2.468,2.887-2,4.5
		c4.354-2.925,9.021-3.925,14-3c-6.853,7.019-14.686,12.686-23.5,17c-1.301,1.902-1.968,3.902-2,6c4.604-5.035,9.771-7.868,15.5-8.5
		C35.462,63.039,28.962,70.872,21,77.5c-1.422,2.53-1.755,5.197-1,8c3.113-5.113,6.946-9.613,11.5-13.5c0.667-0.667,1.333-0.667,2,0
		c-2.158,6.473-4.324,12.973-6.5,19.5c-2.092,3.181-4.425,6.182-7,9c-0.546,3.398-0.213,6.732,1,10c1.343-7.023,4.51-13.022,9.5-18
		c0.942,9.134,0.109,18.134-2.5,27c-0.785,1.786-1.951,3.286-3.5,4.5c1.882,2.979,3.382,6.145,4.5,9.5
		c0.035-7.346,1.535-14.346,4.5-21c3.751,9.266,5.251,18.932,4.5,29c-0.31,1.266-0.81,2.434-1.5,3.5
		c1.878,1.543,3.378,3.376,4.5,5.5c0.17-6.027,0.67-12.027,1.5-18c6.62,8.57,10.453,18.238,11.5,29c1.835,1.826,3.669,2.826,5.5,3
		c-2.38-4.973-4.047-10.141-5-15.5c0.667-0.667,1.333-0.667,2,0c4.5,4.5,9,9,13.5,13.5c2.257,2.938,3.424,6.271,3.5,10
		c2.012,0.514,4.012,0.68,6,0.5c-4.117-3.391-6.117-7.559-6-12.5c4.959,2.264,9.959,4.432,15,6.5c3.098,2.428,5.431,5.428,7,9
		c6.378,1.844,10.545-0.323,12.5-6.5c5.473-3.652,11.307-6.652,17.5-9c0.271,4.995-1.729,9.162-6,12.5c1.988,0.18,3.988,0.014,6-0.5
		c0.326-2.811,1.159-5.479,2.5-8c4.467-5.468,9.3-10.635,14.5-15.5c1.1-0.432,1.768,0.068,2,1.5c-1.309,4.736-2.477,9.402-3.5,14
		c1.667-1.333,3.333-2.667,5-4c0.208-4.418,0.874-8.751,2-13c3-5.333,6-10.667,9-16c1.605,5.98,1.939,11.98,1,18
		c3.711-2.359,4.711-5.359,3-9c-0.121-9.568,1.379-18.902,4.5-28c3.254,6.208,4.754,12.874,4.5,20c1-2,2-4,3-6
		c-1.26-5.24-2.593-10.573-4-16c-0.322-5.352-0.822-10.686-1.5-16c0.333-1,0.667-2,1-3c4.209,5.053,7.376,10.719,9.5,17
		c0.373-2.198,0.873-4.365,1.5-6.5c-6.676-9.188-11.342-19.355-14-30.5c0.502-1.021,1.168-1.188,2-0.5
		c4.593,4.593,8.593,8.593,12,12c-0.479-2.226-1.145-4.393-2-6.5c-3.27-1.767-6.104-4.1-8.5-7c-3.109-5.44-6.609-10.607-10.5-15.5
		c5.643,0.739,10.475,3.239,14.5,7.5c0.122-1.668-0.212-3.335-1-5c-8.962-4.292-16.795-10.126-23.5-17.5
		c4.809,0.041,9.477,0.708,14,2c-0.857-0.689-1.523-1.522-2-2.5c-9.184-1.432-17.516-4.766-25-10c4.686-1.279,9.354-1.279,14,0
		c0.333-0.167,0.667-0.333,1-0.5c-0.828-0.915-1.828-1.582-3-2c-8.697-0.298-17.363-0.965-26-2c-0.846-1.558-0.18-2.558,2-3
		c4.27-1.254,8.604-2.254,13-3c-3.656-2.59-7.656-4.59-12-6c-12.686-12.377-10.686-14.71,6-7c2.904,3.684,5.904,7.184,9,10.5
		c0.333-0.333,0.667-0.667,1-1c-2.109-3.766-2.943-7.766-2.5-12c8.271,3.43,13.438,9.43,15.5,18c-0.07,1.271-0.402,2.438-1,3.5
		c1.833,1.833,3.667,3.667,5.5,5.5c-0.406-5.972-0.406-11.972,0-18c6.977,5.287,10.811,12.287,11.5,21c-0.052,2.822-0.719,5.489-2,8
		c1.5,2.333,3,4.667,4.5,7c2.802-23.864,6.302-23.864,10.5,0c-0.572,4.474-2.238,8.474-5,12c0.932,2.295,1.766,4.629,2.5,7
		c2.563-6.128,5.896-11.795,10-17c1.738,8.021,1.738,16.021,0,24c-0.911,3.076-2.744,5.409-5.5,7c-1.157,3.284-1.324,6.618-0.5,10
		c3.419-5.423,7.585-10.256,12.5-14.5c1.1-0.432,1.768,0.068,2,1.5c-0.85,7.424-3.016,14.424-6.5,21c-2.428,3.098-5.428,5.432-9,7
		c-0.868,2.984-1.201,5.984-1,9C187.109,109.368,192.943,105.368,199.5,102.5z"/>
</g>
</svg>
