<?xml version="1.0" encoding="utf-8"?>
<!-- Generator: Adobe Illustrator 16.0.0, SVG Export Plug-In . SVG Version: 6.00 Build 0)  -->
<!DOCTYPE svg PUBLIC "-//W3C//DTD SVG 1.1//EN" "http://www.w3.org/Graphics/SVG/1.1/DTD/svg11.dtd">
<svg version="1.1" id="Calque_1" xmlns="http://www.w3.org/2000/svg" xmlns:xlink="http://www.w3.org/1999/xlink" x="0px" y="0px"
	 width="134px" height="83px" viewBox="0 0 134 83" enable-background="new 0 0 134 83" xml:space="preserve">
	<path fill="#daa520" d="M128.5,1.5c0.961,1.765,1.295,3.765,1,6c-0.518,7.03-3.186,13.03-8,18c-1.129-0.97-2.129-2.136-3-3.5
		c1.318-1.99,2.652-3.99,4-6c-0.557-0.383-0.889-0.883-1-1.5C123.566,10.034,125.9,5.701,128.5,1.5z"/>
	<path fill="#daa520" d="M133.5,15.5c0,1,0,2,0,3c-0.932,3.793-2.266,7.459-4,11c0.262-1.478-0.07-2.811-1-4
		c-1.122,1.13-2.456,1.797-4,2C127.503,23.491,130.503,19.491,133.5,15.5z"/>
	<path fill="#daa520" d="M121.5,14.5c0.111,0.617,0.443,1.117,1,1.5c-1.348,2.01-2.682,4.01-4,6c0.871,1.364,1.871,2.53,3,3.5
		c-2.936,4.605-6.602,8.605-11,12c0.188-1.604-0.313-2.937-1.5-4c-2.628,1.625-4.961,3.625-7,6c-0.383-0.556-0.883-0.889-1.5-1
		C108.245,31.092,115.245,23.092,121.5,14.5z"/>
	<path fill="#daa520" d="M2.5-0.5c0.333,0,0.667,0,1,0c2.267,4.924,4.934,9.591,8,14c-1.643,0.02-2.976-0.647-4-2
		c-0.333,0.5-0.667,1-1,1.5c0.979,2.433,1.646,4.933,2,7.5c1,0,2,0,3,0c-0.157,1.374,0.01,2.707,0.5,4
		c4.742,4.197,8.575,8.53,11.5,13c-0.333,0-0.667,0-1,0C12.503,30.168,6.003,20.502,3,8.5C2.502,5.519,2.335,2.519,2.5-0.5z"/>
	<path fill="#daa520" d="M11.5,13.5c4.901,7.904,10.568,15.238,17,22c-1.528,0.017-2.028,0.684-1.5,2c0.333-0.333,0.667-0.667,1-1
		c1.167,1.167,2.333,2.333,3.5,3.5c-0.916,0.278-1.583,0.778-2,1.5c-2.698-0.345-4.698-1.678-6-4c-2.925-4.47-6.758-8.803-11.5-13
		c-0.49-1.293-0.657-2.626-0.5-4c-1,0-2,0-3,0c-0.354-2.567-1.021-5.067-2-7.5c0.333-0.5,0.667-1,1-1.5
		C8.524,12.853,9.857,13.52,11.5,13.5z"/>
	<path fill="#daa520" d="M-0.5,15.5c5.93,8.932,13.263,16.598,22,23c3.333,2.333,6.667,4.666,10,7c-1.372,1.012-2.705,2.012-4,3
		c-7.353-3.094-14.187-7.094-20.5-12c-3.644-5.277-6.144-10.944-7.5-17C-0.5,18.167-0.5,16.833-0.5,15.5z"/>
	<path fill="#daa520" d="M129.5,29.5c-0.82,3.163-2.488,5.83-5,8c-5.902,4.45-12.236,8.117-19,11c-0.418-0.722-1.084-1.222-2-1.5
		c0.667-0.334,1.333-0.666,2-1c-0.916-0.278-1.582-0.778-2-1.5c1.667-1.334,3.333-2.667,5-4c5.913-3.576,11.246-7.909,16-13
		c1.544-0.203,2.878-0.87,4-2C129.43,26.689,129.762,28.022,129.5,29.5z"/>
	<path fill="#daa520" d="M28.5,35.5c6.618,5.318,13.952,9.651,22,13c0.333,0.334,0.667,0.666,1,1c-2.869,4.056-2.203,7.389,2,10
		c-0.617,0.111-1.117,0.443-1.5,1c-1.109-1.537-2.609-2.203-4.5-2c0.791-2.19,0.791-4.19,0-6c-0.752-1.6-1.752-3.1-3-4.5
		c-3.997-1.662-7.663-3.83-11-6.5c-1.227,0.863-2.56,0.863-4,0c0.417-0.722,1.084-1.222,2-1.5c-1.167-1.167-2.333-2.333-3.5-3.5
		c-0.333,0.333-0.667,0.667-1,1C26.472,36.184,26.972,35.517,28.5,35.5z"/>
	<path fill="#daa520" d="M110.5,37.5c-1,0.667-2,1.333-3,2c-3.213,2.774-6.88,4.774-11,6c-2.578-0.105-4.912,0.561-7,2
		c-0.342-0.838-1.008-1.172-2-1c4.311-2.632,8.645-5.299,13-8c0.617,0.111,1.117,0.444,1.5,1c2.039-2.375,4.372-4.375,7-6
		C110.188,34.563,110.688,35.896,110.5,37.5z"/>
	<path fill="#daa520" d="M103.5,44.5c0.418,0.722,1.084,1.222,2,1.5c-0.667,0.334-1.333,0.666-2,1c0.916,0.278,1.582,0.778,2,1.5
		c-0.333,0-0.667,0-1,0c-3.178,0.711-6.178,1.878-9,3.5c2.348,0.334,4.682,0.167,7-0.5c0.973,0.486,1.973,0.986,3,1.5
		c-1.619,0.235-2.619,1.068-3,2.5c-0.667,0-1.333,0-2,0c-1.983-0.344-3.316,0.323-4,2c-1.208,0.734-2.541,1.067-4,1
		c-0.453-0.959-1.119-1.791-2-2.5c-0.007-1.582,0.326-3.25,1-5c-1.322-0.816-1.989-1.982-2-3.5c2.088-1.439,4.422-2.105,7-2
		c-0.963,0.863-0.963,1.53,0,2C98.738,46.213,101.072,45.213,103.5,44.5z"/>
	<path fill="#daa520" d="M29.5,41.5c1.44,0.863,2.773,0.863,4,0c3.337,2.67,7.003,4.838,11,6.5c1.248,1.4,2.248,2.9,3,4.5
		c-0.949,1.423-1.949,2.923-3,4.5c1.443,2.774,2.777,5.607,4,8.5c-0.247,1.213-0.914,1.88-2,2c-1.072-3.389-3.405-5.389-7-6
		c1.554-1.395,1.221-2.062-1-2c-2.849,0.465-5.516,1.131-8,2c-3.862-0.038-7.696,0.295-11.5,1c-2.665-0.168-5.165-0.835-7.5-2
		c7.805,0.346,15.805-0.154,24-1.5c-8.059-0.605-16.059-1.605-24-3c0.948-0.482,1.948-0.649,3-0.5c4,0.334,8,0.666,12,1
		c3.574,1.273,7.241,1.107,11-0.5c-1.634-0.494-3.301-0.66-5-0.5c-0.667,0-1.333,0-2,0c1.792-0.809,3.792-1.309,6-1.5
		c-1.237-0.232-2.237-0.732-3-1.5c1.374,0.156,2.707-0.01,4-0.5c-2.925-1.316-5.925-2.483-9-3.5c-0.333,0-0.667,0-1,0
		c1.295-0.988,2.628-1.988,4-3c1.347,0.528,2.681,0.695,4,0.5C33.253,44.723,31.253,43.223,29.5,41.5z"/>
	<path fill="#daa520" d="M17.5,46.5c-0.739-0.131-1.406,0.035-2,0.5c0.886,1.217,1.886,2.551,3,4c-1.237,0.232-2.237,0.732-3,1.5
		C6.445,50.288,1.611,44.621,1,35.5C6.308,39.562,11.808,43.229,17.5,46.5z"/>
	<path fill="#daa520" d="M102.5,55.5c0.381-1.432,1.381-2.265,3-2.5c-1.027-0.514-2.027-1.014-3-1.5c1.333-0.666,2.667-1.334,4-2
		c9.457-2.978,17.957-7.644,25.5-14c-0.629,8.059-4.796,13.559-12.5,16.5C113.971,53.873,108.303,55.039,102.5,55.5z"/>
	<path fill="#daa520" d="M17.5,46.5c2.926,1.197,5.926,2.197,9,3c2.279,1.151,4.612,2.151,7,3c0.763,0.768,1.763,1.268,3,1.5
		c-2.208,0.191-4.208,0.691-6,1.5c-5.156-0.364-10.156-1.364-15-3c0.763-0.768,1.763-1.268,3-1.5c-1.114-1.449-2.114-2.783-3-4
		C16.094,46.535,16.761,46.369,17.5,46.5z"/>
	<path fill="#daa520" d="M118.5,61.5c-4.482-0.826-9.148-1.326-14-1.5c5.363-0.17,10.698-0.67,16-1.5c-2.58-1.049-5.246-1.715-8-2
		c4.82-1.005,9.654-2.338,14.5-4C126.148,57.191,123.314,60.191,118.5,61.5z"/>
	<path fill="#daa520" d="M106.5,56.5c2,0,4,0,6,0c2.754,0.285,5.42,0.951,8,2c-5.302,0.83-10.637,1.33-16,1.5
		c4.852,0.174,9.518,0.674,14,1.5c-5.618,0.775-11.284,0.775-17,0c-2.772-1.157-5.772-1.824-9-2c0-0.334,0-0.666,0-1
		c1.459,0.067,2.792-0.266,4-1C100.042,57.813,103.375,57.479,106.5,56.5z"/>
	<path fill="#daa520" d="M14.5,55.5c-1.052-0.149-2.052,0.018-3,0.5c7.941,1.395,15.941,2.395,24,3
		c-8.195,1.346-16.195,1.846-24,1.5C2.91,53.387,3.91,51.72,14.5,55.5z"/>
	<path fill="#daa520" d="M92.5,60.5c2.492,1.273,5.159,1.94,8,2c3.68,0.225,7.346,0.558,11,1c2,0.666,4,1.334,6,2
		c-5.721,3.629-11.721,3.962-18,1c-1.299-1.599-2.965-2.099-5-1.5c1.193,1.095,2.527,1.928,4,2.5c3.902,0.953,7.57,2.453,11,4.5
		c-4.854,0.882-9.52,0.382-14-1.5c-1.166-1.916-2.832-2.75-5-2.5c1.346,1.669,3.014,2.836,5,3.5c2.305,1.489,4.639,2.989,7,4.5
		c-3.963,0.514-7.629-0.32-11-2.5c-0.502-1.585-1.502-2.085-3-1.5c0.544,0.717,1.211,1.217,2,1.5c1.646,2.313,3.646,4.313,6,6
		c-3.121-0.379-6.121-1.712-9-4c-0.506-3.507,0.16-6.674,2-9.5c-1.109-1.813-0.442-2.646,2-2.5
		C91.263,62.209,91.596,61.209,92.5,60.5z"/>
	<path fill="#daa520" d="M87.5,46.5c0.992-0.172,1.658,0.162,2,1c0.011,1.518,0.678,2.684,2,3.5c-0.674,1.75-1.007,3.418-1,5
		c0.881,0.709,1.547,1.541,2,2.5c0,0.334,0,0.666,0,1s0,0.666,0,1c-0.904,0.709-1.237,1.709-1,3c-2.442-0.146-3.109,0.688-2,2.5
		c-1.84,2.826-2.506,5.993-2,9.5c-2.619-1.146-4.619-2.979-6-5.5c-2.646-0.498-5.313-0.664-8-0.5c0.821-1.01,3.154-1.51,7-1.5
		c-2.31-0.496-4.643-0.663-7-0.5c0.129-3.984,1.963-5.318,5.5-4c1.43-2.483,3.597-4.983,6.5-7.5c-0.566-0.994-1.232-1.828-2-2.5
		C80.674,49.258,82.008,46.924,87.5,46.5z"/>
	<path fill="#daa520" d="M39.5,61.5c3.595,0.611,5.928,2.611,7,6c-0.792,1.467-0.792,2.801,0,4c1.35-1.45,3.017-2.117,5-2
		c-1.333,2-3,3.666-5,5c-1.984-0.358-2.651-1.191-2-2.5c-0.937-0.691-1.604-0.525-2,0.5c-3.492,2.886-7.492,4.053-12,3.5
		c2.217-1.724,4.55-3.224,7-4.5c6.434-4.622,6.101-4.955-1-1c-4.443,1.966-9.11,2.466-14,1.5c3.922-1.798,7.922-3.298,12-4.5
		c4.134-1.307,4.467-2.307,1-3c-1.667-0.666-3.333-1.334-5-2c0.667,0,1.333,0,2,0C34.764,61.781,37.097,61.448,39.5,61.5z"/>
	<path fill="#daa520" d="M47.5,52.5c0.791,1.81,0.791,3.81,0,6c1.891-0.203,3.391,0.463,4.5,2c0.383-0.557,0.883-0.889,1.5-1
		c0.333,0,0.667,0,1,0c-0.111,0.617-0.444,1.117-1,1.5c3.392,1.689,6.392,3.855,9,6.5c-3.165,0.051-6.499,0.218-10,0.5
		c0.916,0.278,1.583,0.778,2,1.5c-1,0-2,0-3,0c-1.983-0.117-3.65,0.55-5,2c-0.792-1.199-0.792-2.533,0-4c1.086-0.12,1.753-0.787,2-2
		c-1.223-2.893-2.557-5.726-4-8.5C45.551,55.423,46.551,53.923,47.5,52.5z"/>
	<path fill="#daa520" d="M30.5,62.5c1.667,0.666,3.333,1.334,5,2c-1,0.666-2,1.334-3,2c-6.08,2.902-11.913,2.569-17.5-1
		c-0.167-0.334-0.333-0.666-0.5-1C19.815,63.613,25.148,62.946,30.5,62.5z"/>
	<path fill="#daa520" d="M83.5,53.5c0.768,0.672,1.434,1.506,2,2.5c-2.903,2.517-5.07,5.017-6.5,7.5c-3.537-1.318-5.371,0.016-5.5,4
		c2.357-0.163,4.69,0.004,7,0.5c-3.846-0.01-6.179,0.49-7,1.5c-1.878,0.707-3.545,1.874-5,3.5c1.903,2.877,2.903,6.044,3,9.5
		c-0.334,0-0.666,0-1,0c-2.666-9.334-5.333-9.334-8,0c-0.333,0-0.667,0-1,0c0.841-3.664,1.341-7.33,1.5-11
		c-2.621-1.492-5.455-2.158-8.5-2c-0.417-0.722-1.084-1.222-2-1.5c3.501-0.282,6.835-0.449,10-0.5c-2.608-2.645-5.608-4.811-9-6.5
		c0.556-0.383,0.889-0.883,1-1.5c4.547,2.206,8.547,5.206,12,9c4.092-4.219,8.758-7.719,14-10.5
		C82.141,56.871,83.141,55.371,83.5,53.5z"/>
	<path fill="#daa520" d="M46.5,74.5c-3.163,2.915-6.83,4.748-11,5.5c2.928-2.09,5.261-4.59,7-7.5c0.396-1.025,1.063-1.191,2-0.5
		C43.849,73.309,44.516,74.142,46.5,74.5z"/>
</svg>
