<svg version="1.1" id="Calque_1" xmlns="http://www.w3.org/2000/svg" xmlns:xlink="http://www.w3.org/1999/xlink" x="0px" y="0px"
width="840px" height="1000px" viewBox="0 0 840 1000" enable-background="new 0 0 841.89 1000" xml:space="preserve">
  <path fill="#FFFFFF" d="M594.646,182.849C560.119,97.682,469.777,73.384,465.949,72.39c-11.938-3.097-24.152,4.062-27.248,15.998
    c-3.092,11.937,4.039,24.107,15.971,27.201c0.725,0.192,72.646,20.012,98.602,84.034c3.518,8.677,11.873,13.941,20.691,13.941
    c2.793,0,5.633-0.527,8.381-1.643C593.771,207.294,599.279,194.275,594.646,182.849z"/>
  <path fill="#FFFFFF" d="M668.882,242.528C668.882,108.798,557.359,0,420.278,0C283.197,0,171.673,108.797,171.673,242.528
    c0,64.343,28.924,108.402,56.892,151.009c28.927,44.059,56.249,85.679,56.249,152.062v42.567c0,25.2,9.934,48.809,27.975,66.5
    l41.501,41.5c18.195,18.197,42.086,27.293,65.988,27.289c23.897-0.002,47.797-9.098,65.989-27.289l41.504-41.502
    c18.041-17.691,27.975-41.301,27.975-66.499v-23.816c0-15.489,2.912-51.158,3.49-58.092c8.299-45.62,30.041-78.77,53.063-113.836
    C640.115,350.044,668.882,306.229,668.882,242.528z M329.462,588.166v-42.568c0-6.911-0.254-13.604-0.737-20.104h184.253
    c-0.371,5.304-0.746,10.988-1.061,16.529h-91.636c-12.33,0-22.323,9.993-22.323,22.321c0,12.327,9.993,22.323,22.323,22.323h90.816
    v1.494c0,6.932-1.461,13.633-4.223,19.78c-0.307-0.017-0.609-0.047-0.918-0.047H334.604c-0.312,0-0.613,0.03-0.921,0.047
    C330.926,601.798,329.462,595.098,329.462,588.166z M454.398,338.618c-0.027,1.429-0.646,23.188-13.301,50.744
    c-6.227,13.548-14.178,26.171-23.821,37.825c-38.816-43.621-35.557-81.851-35.147-85.423l0.233-1.278v-1.969
    c0-19.861,16.154-36.019,36.019-36.019c19.861,0,36.019,16.157,36.019,36.019l-0.006-0.058L454.398,338.618z M385.86,664.595
    l-12.054-12.053h92.945l-12.055,12.053C435.72,683.572,404.841,683.572,385.86,664.595z M519.125,480.849h-31.152
    c-0.213-0.124-0.404-0.264-0.625-0.382c-14.084-7.62-26.289-15.434-36.879-23.29c47.785-56.582,48.59-114.21,48.578-118.715
    c-0.025-44.457-36.201-80.614-80.665-80.614c-44.021,0-79.921,35.444-80.652,79.297c-1.129,11.173-3.396,64.659,47.216,120.841
    c-10.7,8.137-22.55,15.575-35.523,22.291c-0.341,0.175-0.651,0.381-0.978,0.571h-27.085
    c-11.812-45.313-34.611-80.049-55.465-111.813c-26.598-40.519-49.571-75.508-49.571-126.508
    C216.32,133.416,307.815,44.646,420.281,44.646c112.462,0,203.957,88.769,203.957,197.883c0,50.354-22.828,85.126-49.264,125.39
    C554.201,399.561,530.97,434.942,519.125,480.849z"/>
  <text transform="matrix(1 0 0 1 0 1000)" fill="#FFFFFF" font-family="Montserrat" letter-spacing="30" font-weight="bold" font-size="120">NEVEZIDE</text>
</svg>
